<svg aria-hidden="true" style="position:absolute;width:0;height:0;overflow:hidden" xmlns="http://www.w3.org/2000/svg"><defs><symbol id="icon-keyboard_arrow_up" viewBox="0 0 24 24"><path d="M7.406 15.422 6 14.016l6-6 6 6-1.406 1.406L12 10.828z"/></symbol><symbol id="icon-twitter" viewBox="0 0 26 28"><path d="M25.312 6.375a10.85 10.85 0 0 1-2.531 2.609c.016.219.016.438.016.656 0 6.672-5.078 14.359-14.359 14.359-2.859 0-5.516-.828-7.75-2.266.406.047.797.063 1.219.063 2.359 0 4.531-.797 6.266-2.156a5.056 5.056 0 0 1-4.719-3.5c.313.047.625.078.953.078.453 0 .906-.063 1.328-.172a5.048 5.048 0 0 1-4.047-4.953v-.063a5.093 5.093 0 0 0 2.281.641 5.044 5.044 0 0 1-2.25-4.203c0-.938.25-1.797.688-2.547a14.344 14.344 0 0 0 10.406 5.281 5.708 5.708 0 0 1-.125-1.156 5.045 5.045 0 0 1 5.047-5.047 5.03 5.03 0 0 1 3.687 1.594 9.943 9.943 0 0 0 3.203-1.219 5.032 5.032 0 0 1-2.219 2.781c1.016-.109 2-.391 2.906-.781z"/></symbol><symbol id="icon-facebook" viewBox="0 0 16 28"><path d="M14.984.187v4.125h-2.453c-1.922 0-2.281.922-2.281 2.25v2.953h4.578l-.609 4.625H10.25v11.859H5.469V14.14H1.485V9.515h3.984V6.109C5.469 2.156 7.891 0 11.422 0c1.687 0 3.141.125 3.563.187z"/></symbol><symbol id="icon-linkedin" viewBox="0 0 24 28"><path d="M5.453 9.766V25.25H.297V9.766h5.156zm.328-4.782c.016 1.484-1.109 2.672-2.906 2.672h-.031C1.11 7.656 0 6.468 0 4.984c0-1.516 1.156-2.672 2.906-2.672 1.766 0 2.859 1.156 2.875 2.672zM24 16.375v8.875h-5.141v-8.281c0-2.078-.75-3.5-2.609-3.5-1.422 0-2.266.953-2.641 1.875-.125.344-.172.797-.172 1.266v8.641H8.296c.063-14.031 0-15.484 0-15.484h5.141v2.25h-.031c.672-1.062 1.891-2.609 4.672-2.609 3.391 0 5.922 2.219 5.922 6.969z"/></symbol><symbol id="icon-youtube-play" viewBox="0 0 28 28"><path d="m11.109 17.625 7.562-3.906-7.562-3.953v7.859zM14 4.156c5.891 0 9.797.281 9.797.281.547.063 1.75.063 2.812 1.188 0 0 .859.844 1.109 2.781.297 2.266.281 4.531.281 4.531v2.125s.016 2.266-.281 4.531c-.25 1.922-1.109 2.781-1.109 2.781-1.062 1.109-2.266 1.109-2.812 1.172 0 0-3.906.297-9.797.297-7.281-.063-9.516-.281-9.516-.281-.625-.109-2.031-.078-3.094-1.188 0 0-.859-.859-1.109-2.781C-.016 17.327 0 15.062 0 15.062v-2.125s-.016-2.266.281-4.531C.531 6.469 1.39 5.625 1.39 5.625 2.452 4.5 3.656 4.5 4.202 4.437c0 0 3.906-.281 9.797-.281z"/></symbol><symbol id="icon-behance" viewBox="0 0 32 28"><path d="M28.875 5.297h-7.984v1.937h7.984V5.297zm-3.937 6.656c-1.875 0-3.125 1.172-3.25 3.047h6.375c-.172-1.891-1.156-3.047-3.125-3.047zm.25 9.141c1.188 0 2.719-.641 3.094-1.859h3.453c-1.062 3.266-3.266 4.797-6.672 4.797-4.5 0-7.297-3.047-7.297-7.484 0-4.281 2.953-7.547 7.297-7.547 4.469 0 6.937 3.516 6.937 7.734 0 .25-.016.5-.031.734H21.688c0 2.281 1.203 3.625 3.5 3.625zm-20.86-.782h4.625c1.766 0 3.203-.625 3.203-2.609 0-2.016-1.203-2.812-3.109-2.812H4.328v5.422zm0-8.39h4.391c1.547 0 2.641-.672 2.641-2.344 0-1.813-1.406-2.25-2.969-2.25H4.329v4.594zM0 3.969h9.281c3.375 0 6.297.953 6.297 4.875 0 1.984-.922 3.266-2.688 4.109 2.422.688 3.594 2.516 3.594 4.984 0 4-3.359 5.719-6.937 5.719H0V3.968z"/></symbol></defs></svg>